<svg width="898" height="482" viewBox="0 0 898 482" fill="none" xmlns="http://www.w3.org/2000/svg">
<line x1="88" y1="384" x2="88" y2="98" stroke="white" stroke-width="6"/>
<path d="M751.868 100.338V112.571H752.228C758.883 103.756 768.237 98.1797 781.729 98.1797C801.157 98.1797 813.029 108.793 813.029 128.041V193.34H798.458V129.3C798.458 117.248 790.543 110.412 777.412 110.412C762.661 110.412 751.868 120.845 751.868 136.136V193.34H737.297V100.338H751.868Z" fill="white"/>
<path d="M677.972 195.858C650.269 195.858 633 173.912 633 146.929C633 119.946 650.269 98 677.972 98C705.854 98 722.764 119.946 722.764 146.929C722.764 173.912 705.854 195.858 677.972 195.858ZM677.972 183.626C697.759 183.626 707.833 167.436 707.833 146.929C707.833 126.422 697.759 110.052 677.972 110.052C658.184 110.052 647.931 126.422 647.931 146.929C647.931 167.436 658.184 183.626 677.972 183.626Z" fill="white"/>
<path d="M495.395 193.34V100.338H509.965V113.65H510.325C516.082 104.656 525.975 98.1797 537.668 98.1797C549.001 98.1797 557.995 103.936 561.953 114.729H562.312C568.249 104.116 579.402 98.1797 590.735 98.1797C607.284 98.1797 618.977 108.793 618.977 128.041V193.34H604.406V128.76C604.406 117.248 596.671 110.412 587.317 110.412C575.264 110.412 564.471 120.845 564.471 135.416V193.34H549.9V128.76C549.9 117.248 543.424 110.412 533.89 110.412C522.557 110.412 509.965 120.845 509.965 135.416V193.34H495.395Z" fill="white"/>
<path d="M352.578 193.34V100.338H367.149V113.65H367.509C373.265 104.656 383.159 98.1797 394.852 98.1797C406.184 98.1797 415.179 103.936 419.136 114.729H419.496C425.432 104.116 436.585 98.1797 447.918 98.1797C464.468 98.1797 476.16 108.793 476.16 128.041V193.34H461.59V128.76C461.59 117.248 453.854 110.412 444.5 110.412C432.448 110.412 421.655 120.845 421.655 135.416V193.34H407.084V128.76C407.084 117.248 400.608 110.412 391.074 110.412C379.741 110.412 367.149 120.845 367.149 135.416V193.34H352.578Z" fill="white"/>
<path d="M293.253 195.858C265.55 195.858 248.281 173.912 248.281 146.929C248.281 119.946 265.55 98 293.253 98C321.135 98 338.045 119.946 338.045 146.929C338.045 173.912 321.135 195.858 293.253 195.858ZM293.253 183.626C313.041 183.626 323.114 167.436 323.114 146.929C323.114 126.422 313.041 110.052 293.253 110.052C273.465 110.052 263.212 126.422 263.212 146.929C263.212 167.436 273.465 183.626 293.253 183.626Z" fill="white"/>
<path d="M199.972 195.858C172.269 195.858 155 173.912 155 146.929C155 119.946 172.269 98 199.972 98C221.918 98 236.489 110.592 239.727 130.38H224.976C222.817 117.788 214.003 110.052 199.972 110.052C180.184 110.052 169.931 126.422 169.931 146.929C169.931 167.436 180.184 183.626 199.972 183.626C215.082 183.626 224.077 174.992 225.336 160.601H239.727C237.748 182.907 223.177 195.858 199.972 195.858Z" fill="white"/>
<path d="M444.856 325.717C416.434 325.717 399.885 303.771 399.885 276.788C399.885 249.805 417.514 227.858 443.957 227.858C471.84 227.858 486.77 249.445 486.77 280.205H414.815C415.895 299.094 426.148 313.485 444.856 313.485C458.348 313.485 467.342 307.009 470.58 294.417H484.791C480.474 314.384 465.903 325.717 444.856 325.717ZM443.957 239.371C426.688 239.371 417.334 252.323 415.175 269.232H471.12C470.221 250.704 460.687 239.371 443.957 239.371Z" fill="white"/>
<path d="M361.523 230.197V245.668H361.883C367.459 236.673 377.173 229.118 389.585 229.118C392.284 229.118 393.723 229.478 395.522 230.197V244.229H394.982C392.823 243.509 391.384 243.329 388.506 243.329C374.115 243.329 361.523 254.122 361.523 271.571V323.199H346.952V230.197H361.523Z" fill="white"/>
<path d="M328.289 324.098C318.755 324.098 313.718 319.781 312.279 310.247H312.099C306.523 317.442 296.989 324.998 281.159 324.998C263.53 324.998 249.679 316.723 249.679 299.094C249.679 277.148 266.948 272.651 290.153 269.053C303.285 267.074 312.459 265.815 312.459 255.741C312.459 245.308 304.904 239.372 291.592 239.372C276.482 239.372 268.927 245.847 268.387 259.879H254.356C254.895 241.89 266.768 228.398 291.413 228.398C311.2 228.398 325.771 235.774 325.771 257.9V302.152C325.771 309.707 327.57 313.845 335.665 312.046H336.204V322.659C334.405 323.379 332.067 324.098 328.289 324.098ZM284.397 313.845C303.825 313.845 312.639 299.634 312.639 288.84V273.01C307.782 276.068 299.328 278.407 291.413 279.846C276.842 282.544 265.149 285.063 265.149 298.734C265.149 311.146 274.863 313.845 284.397 313.845Z" fill="white"/>
<path d="M199.972 325.717C172.269 325.717 155 303.771 155 276.788C155 249.805 172.269 227.858 199.972 227.858C221.918 227.858 236.489 240.45 239.727 260.238H224.976C222.817 247.646 214.003 239.911 199.972 239.911C180.184 239.911 169.931 256.281 169.931 276.788C169.931 297.295 180.184 313.485 199.972 313.485C215.082 313.485 224.077 304.85 225.336 290.459H239.727C237.748 312.765 223.177 325.717 199.972 325.717Z" fill="white"/>
</svg>
