<svg width="792" height="350" viewBox="0 0 792 350" fill="none" xmlns="http://www.w3.org/2000/svg">
<line x1="35" y1="318" x2="35" y2="32" stroke="#1F3414" stroke-width="6"/>
<path d="M698.868 34.3383V46.5706H699.228C705.883 37.7562 715.237 32.1797 728.729 32.1797C748.157 32.1797 760.029 42.793 760.029 62.0409V127.34H745.458V63.3001C745.458 51.2477 737.543 44.412 724.412 44.412C709.661 44.412 698.868 54.8454 698.868 70.1358V127.34H684.297V34.3383H698.868Z" fill="#1F3414"/>
<path d="M624.972 129.858C597.269 129.858 580 107.912 580 80.9292C580 53.9462 597.269 32 624.972 32C652.854 32 669.764 53.9462 669.764 80.9292C669.764 107.912 652.854 129.858 624.972 129.858ZM624.972 117.626C644.759 117.626 654.833 101.436 654.833 80.9292C654.833 60.4221 644.759 44.0524 624.972 44.0524C605.184 44.0524 594.931 60.4221 594.931 80.9292C594.931 101.436 605.184 117.626 624.972 117.626Z" fill="#1F3414"/>
<path d="M442.395 127.34V34.3383H456.965V47.65H457.325C463.082 38.6556 472.975 32.1797 484.668 32.1797C496.001 32.1797 504.995 37.9361 508.953 48.7293H509.312C515.249 38.116 526.402 32.1797 537.735 32.1797C554.284 32.1797 565.977 42.793 565.977 62.0409V127.34H551.406V62.7605C551.406 51.2477 543.671 44.412 534.317 44.412C522.264 44.412 511.471 54.8454 511.471 69.4163V127.34H496.9V62.7605C496.9 51.2477 490.424 44.412 480.89 44.412C469.557 44.412 456.965 54.8454 456.965 69.4163V127.34H442.395Z" fill="#1F3414"/>
<path d="M299.578 127.34V34.3383H314.149V47.65H314.509C320.265 38.6556 330.159 32.1797 341.852 32.1797C353.184 32.1797 362.179 37.9361 366.136 48.7293H366.496C372.432 38.116 383.585 32.1797 394.918 32.1797C411.468 32.1797 423.16 42.793 423.16 62.0409V127.34H408.59V62.7605C408.59 51.2477 400.854 44.412 391.5 44.412C379.448 44.412 368.655 54.8454 368.655 69.4163V127.34H354.084V62.7605C354.084 51.2477 347.608 44.412 338.074 44.412C326.741 44.412 314.149 54.8454 314.149 69.4163V127.34H299.578Z" fill="#1F3414"/>
<path d="M240.253 129.858C212.55 129.858 195.281 107.912 195.281 80.9292C195.281 53.9462 212.55 32 240.253 32C268.135 32 285.045 53.9462 285.045 80.9292C285.045 107.912 268.135 129.858 240.253 129.858ZM240.253 117.626C260.041 117.626 270.114 101.436 270.114 80.9292C270.114 60.4221 260.041 44.0524 240.253 44.0524C220.465 44.0524 210.212 60.4221 210.212 80.9292C210.212 101.436 220.465 117.626 240.253 117.626Z" fill="#1F3414"/>
<path d="M146.972 129.858C119.269 129.858 102 107.912 102 80.9292C102 53.9462 119.269 32 146.972 32C168.918 32 183.489 44.5921 186.727 64.3796H171.976C169.817 51.7876 161.003 44.0524 146.972 44.0524C127.184 44.0524 116.931 60.4221 116.931 80.9292C116.931 101.436 127.184 117.626 146.972 117.626C162.082 117.626 171.077 108.992 172.336 94.6006H186.727C184.748 116.907 170.177 129.858 146.972 129.858Z" fill="#1F3414"/>
<path d="M391.856 259.717C363.434 259.717 346.885 237.771 346.885 210.788C346.885 183.805 364.514 161.858 390.957 161.858C418.84 161.858 433.77 183.445 433.77 214.205H361.815C362.895 233.094 373.148 247.485 391.856 247.485C405.348 247.485 414.342 241.009 417.58 228.417H431.791C427.474 248.384 412.903 259.717 391.856 259.717ZM390.957 173.371C373.688 173.371 364.334 186.323 362.175 203.232H418.12C417.221 184.704 407.687 173.371 390.957 173.371Z" fill="#1F3414"/>
<path d="M308.523 164.197V179.668H308.883C314.459 170.673 324.173 163.118 336.585 163.118C339.284 163.118 340.723 163.478 342.522 164.197V178.229H341.982C339.823 177.509 338.384 177.329 335.506 177.329C321.115 177.329 308.523 188.122 308.523 205.571V257.199H293.952V164.197H308.523Z" fill="#1F3414"/>
<path d="M275.289 258.098C265.755 258.098 260.718 253.781 259.279 244.247H259.099C253.523 251.442 243.989 258.998 228.159 258.998C210.53 258.998 196.679 250.723 196.679 233.094C196.679 211.148 213.948 206.651 237.153 203.053C250.285 201.074 259.459 199.815 259.459 189.741C259.459 179.308 251.904 173.372 238.592 173.372C223.482 173.372 215.927 179.847 215.387 193.879H201.356C201.895 175.89 213.768 162.398 238.413 162.398C258.2 162.398 272.771 169.774 272.771 191.9V236.152C272.771 243.707 274.57 247.845 282.665 246.046H283.204V256.659C281.405 257.379 279.067 258.098 275.289 258.098ZM231.397 247.845C250.825 247.845 259.639 233.634 259.639 222.84V207.01C254.782 210.068 246.328 212.407 238.413 213.846C223.842 216.544 212.149 219.063 212.149 232.734C212.149 245.146 221.863 247.845 231.397 247.845Z" fill="#1F3414"/>
<path d="M146.972 259.717C119.269 259.717 102 237.771 102 210.788C102 183.805 119.269 161.858 146.972 161.858C168.918 161.858 183.489 174.45 186.727 194.238H171.976C169.817 181.646 161.003 173.911 146.972 173.911C127.184 173.911 116.931 190.281 116.931 210.788C116.931 231.295 127.184 247.485 146.972 247.485C162.082 247.485 171.077 238.85 172.336 224.459H186.727C184.748 246.765 170.177 259.717 146.972 259.717Z" fill="#1F3414"/>
</svg>
